<svg xmlns="http://www.w3.org/2000/svg" width="1200" height="760" viewBox="0 0 1200 760">
<defs><linearGradient id="g" x1="0" y1="0" x2="1" y2="1"><stop stop-color="#020617"/><stop offset="1" stop-color="#0f766e"/></linearGradient></defs><rect width="1200" height="760" rx="42" fill="url(#g)"/>
<text x="70" y="88" fill="#fff" font-family="Arial" font-size="42" font-weight="900">Covariate-Robust Gait Intelligence</text><text x="70" y="128" fill="#cbd5e1" font-family="Arial" font-size="22">Based on covariate-focused survey work: clothing, view, speed, occlusion, carrying, surface and internal gait changes.</text>
<g font-family="Arial" font-weight="900" font-size="22">
<g fill="#fff"><rect x="90" y="210" width="210" height="96" rx="24"/><rect x="330" y="210" width="210" height="96" rx="24"/><rect x="570" y="210" width="210" height="96" rx="24"/><rect x="810" y="210" width="210" height="96" rx="24"/><rect x="210" y="355" width="210" height="96" rx="24"/><rect x="450" y="355" width="210" height="96" rx="24"/><rect x="690" y="355" width="210" height="96" rx="24"/></g>
<text x="132" y="268" fill="#0f172a">Clothing</text><text x="374" y="268" fill="#0f172a">View angle</text><text x="626" y="268" fill="#0f172a">Carrying</text><text x="868" y="268" fill="#0f172a">Speed</text><text x="260" y="413" fill="#0f172a">Occlusion</text><text x="500" y="413" fill="#0f172a">Surface</text><text x="745" y="413" fill="#0f172a">Health/age</text>
</g><path d="M600 540 C530 600 485 620 390 640M600 540 C690 600 760 620 860 640" fill="none" stroke="#67e8f9" stroke-width="7" stroke-linecap="round"/><text x="405" y="690" fill="#fff" font-size="30" font-family="Arial" font-weight="900">GaitAI: quality score + covariate warning + expert review</text></svg>