<svg xmlns="http://www.w3.org/2000/svg" width="1200" height="760" viewBox="0 0 1200 760">
<defs><linearGradient id="g" x1="0" x2="1"><stop stop-color="#020617"/><stop offset="1" stop-color="#3730a3"/></linearGradient><filter id="s"><feDropShadow dx="0" dy="18" stdDeviation="18" flood-opacity=".22"/></filter></defs>
<rect width="1200" height="760" rx="42" fill="url(#g)"/><text x="70" y="88" fill="#fff" font-family="Arial" font-size="42" font-weight="900">Deep Learning Pipeline for Gait Intelligence</text>
<text x="70" y="130" fill="#cbd5e1" font-family="Arial" font-size="22">Research-inspired architecture: acquisition → preprocessing → feature extraction → transformation → inference</text>
<g font-family="Arial" filter="url(#s)">
<g transform="translate(60,215)"><rect width="170" height="150" rx="28" fill="#fff"/><text x="28" y="54" font-size="26" font-weight="900" fill="#0f172a">01 Input</text><text x="28" y="90" font-size="18" fill="#475569">RGB · depth</text><text x="28" y="116" font-size="18" fill="#475569">thermal · sensors</text></g>
<g transform="translate(285,215)"><rect width="170" height="150" rx="28" fill="#fff"/><text x="26" y="54" font-size="26" font-weight="900" fill="#0f172a">02 Clean</text><text x="26" y="90" font-size="18" fill="#475569">Segmentation</text><text x="26" y="116" font-size="18" fill="#475569">normalisation</text></g>
<g transform="translate(510,215)"><rect width="170" height="150" rx="28" fill="#fff"/><text x="22" y="54" font-size="26" font-weight="900" fill="#0f172a">03 Extract</text><text x="22" y="90" font-size="18" fill="#475569">Pose · GEI</text><text x="22" y="116" font-size="18" fill="#475569">stride · cadence</text></g>
<g transform="translate(735,215)"><rect width="170" height="150" rx="28" fill="#fff"/><text x="22" y="54" font-size="26" font-weight="900" fill="#0f172a">04 Learn</text><text x="22" y="90" font-size="18" fill="#475569">CNN · RNN</text><text x="22" y="116" font-size="18" fill="#475569">LSTM · fusion</text></g>
<g transform="translate(960,215)"><rect width="170" height="150" rx="28" fill="#fff"/><text x="22" y="54" font-size="26" font-weight="900" fill="#0f172a">05 Output</text><text x="22" y="90" font-size="18" fill="#475569">Identity score</text><text x="22" y="116" font-size="18" fill="#475569">fall-risk tier</text></g>
</g>
<g stroke="#67e8f9" stroke-width="7" stroke-linecap="round"><path d="M236 290h40"/><path d="M461 290h40"/><path d="M686 290h40"/><path d="M911 290h40"/></g>
<g transform="translate(90,475)" font-family="Arial"><rect width="1020" height="155" rx="30" fill="rgba(255,255,255,.08)" stroke="rgba(255,255,255,.16)"/><text x="35" y="55" fill="#fff" font-size="28" font-weight="900">GaitAI product layer</text><text x="35" y="95" fill="#cbd5e1" font-size="21">Confidence scoring · covariate warnings · review queue · privacy controls · exportable reports</text></g>
</svg>