<svg xmlns="http://www.w3.org/2000/svg" width="1200" height="760" viewBox="0 0 1200 760">
<rect width="1200" height="760" rx="42" fill="#020617"/><text x="70" y="88" fill="#fff" font-family="Arial" font-size="42" font-weight="900">Privacy-Preserving Gait Pipeline</text><text x="70" y="128" fill="#cbd5e1" font-family="Arial" font-size="22">Inspired by gait dataset protection work: anonymisation, reversible pipeline and silhouette-level privacy protection.</text>
<g transform="translate(80,220)" font-family="Arial"><rect width="180" height="140" rx="28" fill="#fff"/><text x="35" y="60" font-size="24" font-weight="900" fill="#0f172a">Raw gait</text><text x="35" y="95" font-size="18" fill="#64748b">video / silhouette</text></g>
<g transform="translate(330,220)" font-family="Arial"><rect width="180" height="140" rx="28" fill="#fff"/><text x="25" y="60" font-size="24" font-weight="900" fill="#0f172a">Detect</text><text x="25" y="95" font-size="18" fill="#64748b">body + gait cycle</text></g>
<g transform="translate(580,220)" font-family="Arial"><rect width="180" height="140" rx="28" fill="#fff"/><text x="25" y="60" font-size="24" font-weight="900" fill="#0f172a">Morph</text><text x="25" y="95" font-size="18" fill="#64748b">geometry + texture</text></g>
<g transform="translate(830,220)" font-family="Arial"><rect width="220" height="140" rx="28" fill="#fff"/><text x="25" y="60" font-size="24" font-weight="900" fill="#0f172a">Protected data</text><text x="25" y="95" font-size="18" fill="#64748b">utility + privacy</text></g>
<g stroke="#67e8f9" stroke-width="8" stroke-linecap="round"><path d="M270 290h48"/><path d="M520 290h48"/><path d="M770 290h48"/></g>
<rect x="155" y="505" width="890" height="105" rx="30" fill="rgba(255,255,255,.08)" stroke="rgba(255,255,255,.14)"/><text x="205" y="565" fill="#fff" font-family="Arial" font-size="28" font-weight="900">Responsible product claim: privacy-aware analytics, not uncontrolled biometric capture.</text></svg>